[
    {
        "id": "1612881681738-869503509-4019633922",
        "name": "test",
        "outputId": "neutron",
        "currentStep": 1,
        "beatCount": 4,
        "stepsPerBeat": 4,
        "notes": [
            {
                "midi": 66,
                "duration": 0.25,
                "time": 0,
                "velocity": 90,
                "slide": true
            },
            {
                "midi": 60,
                "duration": 0.75,
                "time": 0.25,
                "velocity": 90
            },
            {
                "midi": 66,
                "duration": 0.25,
                "time": 1,
                "velocity": 90
            },
            {
                "midi": 60,
                "duration": 0.25,
                "time": 1.5,
                "velocity": 90
            },
            {
                "midi": 60,
                "duration": 0.25,
                "time": 1.75,
                "velocity": 90
            },
            {
                "midi": 66,
                "duration": 0.25,
                "time": 2,
                "velocity": 90
            },
            {
                "midi": 55,
                "duration": 0.5,
                "time": 2.5,
                "velocity": 90,
                "slide": true
            },
            {
                "midi": 66,
                "duration": 0.25,
                "time": 3,
                "velocity": 90
            }
        ]
    },
    {
        "id": "1612881681739-3783564339-2567584944",
        "name": "abc",
        "outputId": "neutron",
        "currentStep": 2.25,
        "beatCount": 4,
        "stepsPerBeat": 4,
        "notes": [
            {
                "midi": 60,
                "duration": 0.25,
                "time": 0.25,
                "velocity": 90
            },
            {
                "midi": 60,
                "duration": 0.25,
                "time": 1.25,
                "velocity": 90
            },
            {
                "midi": 60,
                "duration": 0.25,
                "time": 2.25,
                "velocity": 90
            },
            {
                "midi": 60,
                "duration": 0.25,
                "time": 3.25,
                "velocity": 90
            }
        ]
    },
    {
        "id": "1612881681739-2473644056-492378748",
        "name": "hello",
        "outputId": "psykick1",
        "currentStep": 2.625,
        "beatCount": 4,
        "stepsPerBeat": 4,
        "notes": [
            {
                "midi": 48,
                "duration": 0.25,
                "time": 0,
                "velocity": 90
            },
            {
                "midi": 48,
                "duration": 0.25,
                "time": 1,
                "velocity": 90
            },
            {
                "midi": 48,
                "duration": 0.25,
                "time": 2,
                "velocity": 90
            },
            {
                "midi": 48,
                "duration": 0.25,
                "time": 3,
                "velocity": 90
            }
        ]
    },
    {
        "id": "1612881681739-283523147-619013335",
        "name": "sample",
        "outputId": "hi-hat4",
        "currentStep": 0.375,
        "beatCount": 4,
        "stepsPerBeat": 4,
        "notes": [
            {
                "midi": 60,
                "duration": 0.25,
                "time": 0,
                "velocity": 90
            },
            {
                "midi": 60,
                "duration": 0.25,
                "time": 0.5,
                "velocity": 90
            },
            {
                "midi": 84,
                "duration": 0.25,
                "time": 1,
                "velocity": 90
            },
            {
                "midi": 60,
                "duration": 0.25,
                "time": 1.5,
                "velocity": 90
            },
            {
                "midi": 60,
                "duration": 0.25,
                "time": 2,
                "velocity": 90
            },
            {
                "midi": 60,
                "duration": 0.25,
                "time": 2.5,
                "velocity": 90
            },
            {
                "midi": 60,
                "duration": 0.25,
                "time": 3,
                "velocity": 100
            },
            {
                "midi": 60,
                "duration": 0.25,
                "time": 3.5,
                "velocity": 90
            }
        ]
    },
    {
        "id": "1612881681739-3507464156-3528944334",
        "name": "example",
        "outputId": "wawaw",
        "currentStep": 1,
        "beatCount": 4,
        "stepsPerBeat": 4,
        "displayedNotes": [],
        "notes": [
            {
                "midi": 60,
                "duration": 1,
                "time": 0,
                "velocity": 90
            },
            {
                "midi": 69,
                "duration": 1,
                "time": 1,
                "velocity": 90
            },
            {
                "midi": 60,
                "duration": 0.25,
                "time": 2,
                "velocity": 90
            },
            {
                "midi": 60,
                "duration": 0.25,
                "time": 2.25,
                "velocity": 90
            },
            {
                "midi": 60,
                "duration": 0.25,
                "time": 2.5,
                "velocity": 90
            },
            {
                "midi": 60,
                "duration": 0.25,
                "time": 2.75,
                "velocity": 90
            },
            {
                "midi": 48,
                "duration": 1,
                "time": 3,
                "velocity": 90,
                "slide": false
            }
        ]
    },
    {
        "id": "1612881681739-3507464156-78987789789",
        "name": "bla",
        "outputId": "guitar2",
        "currentStep": 1,
        "beatCount": 16,
        "stepsPerBeat": 4,
        "displayedNotes": [],
        "notes": [
            {
                "midi": 60,
                "duration": 0.25,
                "time": 0,
                "velocity": 90
            },
            {
                "midi": 60,
                "duration": 0.25,
                "time": 2,
                "velocity": 90
            }
        ]
    }
]